<svg width="200" height="200" viewBox="0 0 200 200" fill="none" xmlns="http://www.w3.org/2000/svg">
  <circle cx="100" cy="100" r="90" fill="#F0D9B5" stroke="#8B4513" stroke-width="4"/>
  <path d="M70 160 C70 120, 130 120, 130 160" fill="#B58863"/>
  <path d="M85 50 L115 50 L110 160 H90 L85 50Z" fill="#B58863"/>
  <path d="M85 50 C85 30, 115 30, 115 50" fill="#B58863"/>
  <circle cx="100" cy="30" r="15" fill="#B58863"/>
  <path d="M70 160 L130 160 L125 180 H75 L70 160Z" fill="#8B4513"/>
  <path d="M85 50 L115 50 M85 70 L115 70 M85 90 L115 90 M85 110 L115 110 M85 130 L115 130" stroke="#8B4513" stroke-width="2"/>
</svg>

